<svg xmlns="http://www.w3.org/2000/svg" width="457" height="181.451" viewBox="0 0 457 181.451">
  <g id="logo" transform="translate(138 8.029)">
    <text id="Faisalabad" transform="translate(145 165.422)" font-size="30" font-family="Roboto-Regular, Roboto"><tspan x="0" y="0">FAISALABAD</tspan></text>
    <path id="Union_2" data-name="Union 2" d="M351.406,50.5c-2.614-.3-5.2-.878-8.038-1.373v-9.55A20.764,20.764,0,0,0,356.9,43.184a18.846,18.846,0,0,0,6.566-1.685c4.1-2.083,4.328-6.856.44-9.317-2.727-1.727-5.838-2.837-8.732-4.313a50.9,50.9,0,0,1-7.363-4.07,12.417,12.417,0,0,1,1.669-21.242c5.736-3.049,11.827-3.04,17.991-1.414,6.029,1.59,6.032,1.585,6.074,7.664.008,1.2,0,2.391,0,3.965-4.9-4.388-10.233-5.951-16.335-4.464a12.505,12.505,0,0,0-1.508.475c-2.4.915-4.62,2.161-4.854,5.006s1.908,4.229,4.094,5.276c2.693,1.291,5.515,2.31,8.238,3.541a46.116,46.116,0,0,1,6.115,3.079c8.887,5.745,8.272,17.883-1.1,22.856a22.087,22.087,0,0,1-10.621,2.377A54.53,54.53,0,0,1,351.406,50.5ZM109.46,42.383c-3.577-6.832-3.793-14.223-3-21.661A37.23,37.23,0,0,1,108.4,12C111.749,2.813,120.833-1.8,130.334.652c1.951.5,3.865,1.156,5.76,1.728-.248,3.036-.49,5.994-.753,9.208-.854-.6-1.65-1.172-2.468-1.717-6.443-4.283-13.823-2.249-16.485,4.947a31.006,31.006,0,0,0,.061,22.244c2.229,5.858,7.468,8.08,13.313,5.9a3.229,3.229,0,0,0,1.763-2.321c.144-6.424.081-12.852.081-19.585h7.653V49.4c-.032.019-.2.2-.33.179-4.887-.87-9.55.818-14.322,1.227q-.868.074-1.7.074C116.875,50.876,112.369,47.94,109.46,42.383ZM267.8,49.939V.96H298.2c.232,2.494.491,5.269.729,7.828h-22.12V21.635h17.033V29.3H276.8V42.013h23.359c-.223,2.577-.463,5.337-.687,7.926Zm62.26-.307c-.574-.04-1.22-1.03-1.588-1.714-5.615-10.46-11.189-20.943-17.246-31.306V49.519h-8.067V1.212h9.253l16.866,32.3.408-.25V1.243h8.073v48.47c-1.311,0-2.663.029-4.032.029C332.516,49.742,331.288,49.719,330.064,49.632Zm-249.284,0c-.5-.029-1.048-.989-1.388-1.621q-8.326-15.466-16.6-30.96c-.117-.22-.258-.428-.713-1.176V49.563H54.04V1.233h9.265L80.2,33.547l.4-.191V1.277H88.7V49.708c-1.227,0-2.55.022-3.917.022C83.476,49.729,82.126,49.709,80.78,49.632Zm147.436.021V.7c6.853.362,13.9.334,20.827,1.223,5.645.724,9.473,4.622,11.52,9.864a36.625,36.625,0,0,1,.712,25.368c-2.632,7.971-8.5,12.192-16.85,12.466-2.071.068-4.144.088-6.211.088C234.858,49.707,231.515,49.652,228.216,49.652Zm8.492-40.931V42.641c2.316,0,4.244.041,6.169-.008,5.8-.146,9.331-2.437,10.538-8.09a47.136,47.136,0,0,0,.9-13.587c-.786-9.429-4.992-12.727-12.166-12.727A34.555,34.555,0,0,0,236.708,8.721ZM0,49.519V.771c6.683.28,13.472.165,20.152.966,5.7.683,9.809,4.315,11.97,9.683a36.5,36.5,0,0,1,.6,26.569c-2.4,6.745-7.479,10.788-14.537,11.419-2.324.208-4.661.271-7,.271C7.464,49.679,3.728,49.519,0,49.519ZM8.28,8.394c0,1.545,0,2.764,0,3.982,0,8.011-.123,16.024.018,24.032.133,7.518-1.474,6.19,6.722,6.19,4.512,0,8.082-1.95,9.648-6.409a31.634,31.634,0,0,0-.025-21.456,9,9,0,0,0-7.8-6.28A27.237,27.237,0,0,0,13.721,8.3C12.008,8.3,10.222,8.394,8.28,8.394ZM175.855,49.578c-.606-2.209-1.293-4.449-1.819-6.726a2.03,2.03,0,0,0-2.381-1.816c-2.289.028-4.579.027-6.868.025-3.173,0-6.346,0-9.517.074a2.9,2.9,0,0,0-2.1,1.582c-.783,2.131-1.233,4.384-1.871,6.809h-8.856C147.637,33.5,152.827,17.474,158.1,1.184h10.587c5.362,16.3,10.629,32.308,15.921,48.394ZM155.669,33.82H171.18l-8.12-23.2ZM39.708,49.575V1.219H48.76V49.575Zm147.919,0V.617c8.2.442,16.592.377,24.826,1.5,7.1.964,10.614,6.039,10.79,13.263.173,7.064-3.11,11.494-10.08,13.62-.494.15-.967.367-1.743.666l13.345,19.891H214.3c-3.725-6.34-7.2-12.423-10.9-18.365-.535-.858-2.117-1.23-3.289-1.478a19.43,19.43,0,0,0-3.814-.054V49.574Zm8.552-25.125c4.418-.263,8.714-.24,12.917-.853,3.7-.539,5.63-3.354,5.731-7.133.113-4.231-1.374-6.955-5.251-7.691-4.317-.819-8.79-.822-13.4-1.2Z" transform="translate(-57.289 76.397)" fill="#1a1818" stroke="rgba(0,0,0,0)" stroke-width="1"/>
    <g id="Group_555" data-name="Group 555" transform="translate(-138 -8.029)">
      <path id="Union_3" data-name="Union 3" d="M10.185,91.83c6.839-6.744,16.124-10.754,25.182-13.416,11.235-3.3,18.869-6.306,28.749-12.756.006,2.29-.136,4.794,0,4.968A95.732,95.732,0,0,1,37.145,82.7c-7.222,2.108-16.9,5.459-22.9,10.1C6.973,98.4,1.756,107.963,0,117.2.033,106.277,4.007,97.922,10.185,91.83ZM1.55,30.878c5.166,3.379,9.946,6.447,14.638,9.645a3.072,3.072,0,0,1,.95,2.244q.086,19.123,0,38.246a3.128,3.128,0,0,1-.965,2.26A43.613,43.613,0,0,0,1.55,100.184ZM23.656,0c5.166,3.4,10,6.526,14.755,9.775a2.875,2.875,0,0,1,.716,2.1q.053,29.832-.019,59.663a2.649,2.649,0,0,1-1.035,2.086c-4.72,1.781-9.505,3.39-14.417,5.1Zm22.2,23.613c5.13,3.356,9.828,6.381,14.449,9.519a2.778,2.778,0,0,1,.826,2.032q.085,13.771.01,27.545c0,.7-.277,1.807-.763,2.049-4.66,2.327-9.392,4.509-14.523,6.931Zm18.224,42.03c.037-.017.109-.035.034.014l-.038,0C64.054,65.661,64.063,65.652,64.082,65.643Z" transform="translate(0)" fill="#6d6f71"/>
      <path id="Union_5" data-name="Union 5" d="M22.812,65.34C6.912,51.87,1.688,46.741,0,46.23c4.177-3.242,20.58-9.669,39.125,6.732S60.849,70.436,60.849,70.436a31.2,31.2,0,0,1-14.559,3.376C39.738,73.812,31.52,71.927,22.812,65.34ZM33.906,12.534C47.564,8.79,62.543.181,62.8,0S57.537,21.215,37.916,30.716,2.394,42.8,0,44.58C2.293,36.777,6.693,18.673,33.906,12.534Z" transform="translate(1.232 73.807)" fill="#00a88e"/>
    </g>
  </g>
</svg>
